# xmcd
#
# Track frame offsets: 
#        150
#        14320
#        31041
#        41084
#        74816
#        90099
#        119739
#        143581
#        155555
#        174802
#        189324
#
# Disc length: 2825 seconds
#
# Revision: 3
# Processed by: cddbd v1.5.2PL0 Copyright (c) Steve Scherf et al.
# Submitted via: ExactAudioCopy v0.99pb5
#
DISCID=870b070b
DTITLE=Miles Davis and Robert Glasper - Everything's Beautiful
DYEAR=2016
DGENRE=Jazz
TTITLE0=Talking Shit
TTITLE1=Ghetto Walkin' (feat. Bilal)
TTITLE2=They Can't Hold Me Down (feat. Illa J)
TTITLE3=Maiysha (So Long) (feat. Erykah Badu)
TTITLE4=Violets (feat. Phonte)
TTITLE5=Little Church (feat. Hiatus Kaiyote)
TTITLE6=Silence Is the Way (feat. Laura Mvula)
TTITLE7=Song for Selm (feat. King)
TTITLE8=Milestones (feat. Georgia Annne Muldrow)
TTITLE9=I'm Leaving You (feat. John Scofield and Ledisi)
TTITLE10=Right on Brotha (feat. Stevie Wonder)
EXTD=YEAR: 2016
EXTT0=
EXTT1=
EXTT2=
EXTT3=
EXTT4=
EXTT5=
EXTT6=
EXTT7=
EXTT8=
EXTT9=
EXTT10=
PLAYORDER=
